<svg width="18" height="18" viewBox="0 0 18 18" fill="none" xmlns="http://www.w3.org/2000/svg">
<path fill-rule="evenodd" clip-rule="evenodd" d="M5.32019 0.999608C5.32019 0.55778 5.67836 0.199608 6.12019 0.199608H11.8802C12.322 0.199608 12.6802 0.55778 12.6802 0.999608C12.6802 1.44144 12.322 1.79961 11.8802 1.79961H6.12019C5.67836 1.79961 5.32019 1.44144 5.32019 0.999608ZM0.200195 3.87961C0.200195 3.43778 0.558367 3.07961 1.0002 3.07961H17.0002C17.442 3.07961 17.8002 3.43778 17.8002 3.87961C17.8002 4.32143 17.442 4.67961 17.0002 4.67961H15.8802V14.1196C15.8802 16.1614 14.242 17.7996 12.2002 17.7996H5.80019C3.74406 17.7996 2.12019 16.147 2.12019 14.0396V4.67961H1.0002C0.558367 4.67961 0.200195 4.32143 0.200195 3.87961ZM3.72019 4.67961V14.0396C3.72019 15.2922 4.65632 16.1996 5.80019 16.1996H12.2002C13.3584 16.1996 14.2802 15.2778 14.2802 14.1196V4.67961H3.72019ZM6.8402 6.75961C7.28202 6.75961 7.6402 7.11778 7.6402 7.55961V13.3996C7.6402 13.8414 7.28202 14.1996 6.8402 14.1996C6.39837 14.1996 6.0402 13.8414 6.0402 13.3996V7.55961C6.0402 7.11778 6.39837 6.75961 6.8402 6.75961ZM11.1602 6.75961C11.602 6.75961 11.9602 7.11778 11.9602 7.55961V13.3996C11.9602 13.8414 11.602 14.1996 11.1602 14.1996C10.7184 14.1996 10.3602 13.8414 10.3602 13.3996V7.55961C10.3602 7.11778 10.7184 6.75961 11.1602 6.75961Z" fill="#F97066"/>
</svg>
