<svg width="16" height="16" viewBox="0 0 16 16" fill="none" xmlns="http://www.w3.org/2000/svg">
<path fill-rule="evenodd" clip-rule="evenodd" d="M5.75542 2.35114e-07H10.508C11.1011 -7.42053e-06 11.5861 -1.37638e-05 11.9803 0.0321924C12.3883 0.0655282 12.7568 0.136634 13.1009 0.311982C13.6395 0.586408 14.0774 1.0243 14.3518 1.56289C14.5272 1.90703 14.5983 2.27553 14.6316 2.68354C14.6638 3.07772 14.6638 3.56275 14.6638 4.15581V11.8442C14.6638 12.4373 14.6638 12.9223 14.6316 13.3165C14.5983 13.7245 14.5272 14.093 14.3518 14.4371C14.0774 14.9757 13.6395 15.4136 13.1009 15.688C12.7568 15.8634 12.3883 15.9345 11.9803 15.9678C11.5861 16 11.1011 16 10.508 16H5.75542C5.16236 16 4.67733 16 4.28315 15.9678C3.87514 15.9345 3.50664 15.8634 3.1625 15.688C2.62391 15.4136 2.18602 14.9757 1.91159 14.4371C1.73624 14.093 1.66514 13.7245 1.6318 13.3165C1.5996 12.9223 1.5996 12.4373 1.59961 11.8442V4.15582C1.5996 3.56275 1.5996 3.07772 1.6318 2.68354C1.66514 2.27553 1.73624 1.90703 1.91159 1.56289C2.18602 1.0243 2.62391 0.586408 3.1625 0.311982C3.50664 0.136634 3.87514 0.0655282 4.28315 0.0321924C4.67733 -1.37638e-05 5.16236 -7.42053e-06 5.75542 2.35114e-07ZM4.39072 1.34891C4.06441 1.37557 3.88913 1.42445 3.76227 1.48909C3.47226 1.63686 3.23647 1.87265 3.0887 2.16266C3.02406 2.28952 2.97518 2.4648 2.94852 2.79112C2.92122 3.12514 2.92071 3.55602 2.92071 4.18349V11.8165C2.92071 12.444 2.92122 12.8749 2.94852 13.2089C2.97518 13.5352 3.02406 13.7105 3.0887 13.8373C3.23647 14.1274 3.47226 14.3631 3.76227 14.5109C3.88913 14.5755 4.06441 14.6244 4.39072 14.6511C4.72475 14.6784 5.15562 14.6789 5.7831 14.6789H10.4803C11.1078 14.6789 11.5387 14.6784 11.8727 14.6511C12.199 14.6244 12.3743 14.5755 12.5012 14.5109C12.7912 14.3631 13.027 14.1274 13.1747 13.8373C13.2394 13.7105 13.2883 13.5352 13.3149 13.2089C13.3422 12.8749 13.3427 12.444 13.3427 11.8165V4.18349C13.3427 3.55602 13.3422 3.12514 13.3149 2.79112C13.2883 2.4648 13.2394 2.28952 13.1747 2.16266C13.027 1.87265 12.7912 1.63686 12.5012 1.48909C12.3743 1.42445 12.199 1.37557 11.8727 1.34891C11.5387 1.32161 11.1078 1.3211 10.4803 1.3211H5.7831C5.15562 1.3211 4.72475 1.32161 4.39072 1.34891ZM4.53539 4.33028C4.53539 3.96546 4.83113 3.66972 5.19594 3.66972H11.0675C11.4323 3.66972 11.728 3.96546 11.728 4.33028C11.728 4.69509 11.4323 4.99083 11.0675 4.99083H5.19594C4.83113 4.99083 4.53539 4.69509 4.53539 4.33028ZM4.53539 7.26605C4.53539 6.90124 4.83113 6.6055 5.19594 6.6055H9.59961C9.96442 6.6055 10.2602 6.90124 10.2602 7.26605C10.2602 7.63087 9.96442 7.9266 9.59961 7.9266H5.19594C4.83113 7.9266 4.53539 7.63087 4.53539 7.26605ZM4.53539 10.2018C4.53539 9.83702 4.83113 9.54128 5.19594 9.54128H6.66383C7.02864 9.54128 7.32438 9.83702 7.32438 10.2018C7.32438 10.5666 7.02864 10.8624 6.66383 10.8624H5.19594C4.83113 10.8624 4.53539 10.5666 4.53539 10.2018Z" fill="#667085"/>
</svg>
