<svg width="24" height="18" viewBox="0 0 24 18" fill="none" xmlns="http://www.w3.org/2000/svg">
<path d="M3 2.25C2.5875 2.25 2.25 2.5875 2.25 3V4.03594L10.3359 10.6734C11.3063 11.4703 12.6984 11.4703 13.6688 10.6734L21.75 4.03594V3C21.75 2.5875 21.4125 2.25 21 2.25H3ZM2.25 6.94687V15C2.25 15.4125 2.5875 15.75 3 15.75H21C21.4125 15.75 21.75 15.4125 21.75 15V6.94687L15.0938 12.4125C13.2938 13.8891 10.7016 13.8891 8.90625 12.4125L2.25 6.94687ZM0 3C0 1.34531 1.34531 0 3 0H21C22.6547 0 24 1.34531 24 3V15C24 16.6547 22.6547 18 21 18H3C1.34531 18 0 16.6547 0 15V3Z" fill="#F97066"/>
<path d="M14.4236 4.53751C14.6205 4.34064 14.6205 4.0172 14.4236 3.82032C14.2268 3.62345 13.9033 3.62345 13.7064 3.82032L12.0377 5.48439L10.3736 3.82032C10.1768 3.62345 9.85332 3.62345 9.65645 3.82032C9.45957 4.0172 9.45957 4.34064 9.65645 4.53751L11.3252 6.20157L9.65645 7.86564C9.45957 8.06251 9.45957 8.38595 9.65645 8.58282C9.85332 8.7797 10.1768 8.7797 10.3736 8.58282L12.0377 6.91876L13.7018 8.58282C13.8986 8.7797 14.2221 8.7797 14.4189 8.58282C14.6158 8.38595 14.6158 8.06251 14.4189 7.86564L12.7502 6.20157L14.4236 4.53751Z" fill="#F97066"/>
</svg>
