<svg width="24" height="18" viewBox="0 0 24 18" fill="none" xmlns="http://www.w3.org/2000/svg">
<path d="M3 2.24701C2.5875 2.24701 2.25 2.58406 2.25 2.99602V4.03058L10.3359 10.6593C11.3063 11.4551 12.6984 11.4551 13.6688 10.6593L21.75 4.03058V2.99602C21.75 2.58406 21.4125 2.24701 21 2.24701H3ZM2.25 6.93765V14.9801C2.25 15.392 2.5875 15.7291 3 15.7291H21C21.4125 15.7291 21.75 15.392 21.75 14.9801V6.93765L15.0938 12.396C13.2937 13.8706 10.7016 13.8706 8.90625 12.396L2.25 6.93765ZM0 2.99602C0 1.34353 1.34531 0 3 0H21C22.6547 0 24 1.34353 24 2.99602V14.9801C24 16.6326 22.6547 17.9761 21 17.9761H3C1.34531 17.9761 0 16.6326 0 14.9801V2.99602Z" fill="#32D583"/>
<path d="M18.5845 3.87751C18.8257 4.16293 18.7831 4.5934 18.4946 4.82735L12.5643 9.69349C12.2758 9.93212 11.8407 9.89001 11.6042 9.60459L9.14507 6.67087C8.90389 6.38545 8.94645 5.95498 9.23493 5.72103C9.52341 5.48241 9.95849 5.52452 10.1949 5.80994L12.219 8.22429L17.6245 3.78861C17.9082 3.54998 18.3433 3.59209 18.5845 3.87751Z" fill="#32D583"/>
</svg>
